<svg xmlns="http://www.w3.org/2000/svg" width="24.367" height="24.367" viewBox="0 0 24.367 24.367">
  <path id="Icon_ionic-ios-close-circle" data-name="Icon ionic-ios-close-circle" d="M15.559,3.375A12.184,12.184,0,1,0,27.742,15.559,12.182,12.182,0,0,0,15.559,3.375Zm3.087,16.594-3.087-3.087-3.087,3.087a.936.936,0,1,1-1.324-1.324l3.087-3.087-3.087-3.087a.936.936,0,0,1,1.324-1.324l3.087,3.087,3.087-3.087a.936.936,0,0,1,1.324,1.324l-3.087,3.087,3.087,3.087a.94.94,0,0,1,0,1.324A.93.93,0,0,1,18.645,19.969Z" transform="translate(-3.375 -3.375)" fill="#cbcbcb"/>
</svg>
