<svg xmlns="http://www.w3.org/2000/svg" width="32" height="32" viewBox="0 0 32 32">
  <g id="Group_17953" data-name="Group 17953" transform="translate(-32 -445)">
    <rect id="Rectangle_1829" data-name="Rectangle 1829" width="32" height="32" rx="16" transform="translate(32 445)" fill="#f2c811"/>
    <path id="marker" d="M8.846.042A6.835,6.835,0,0,0,2.019,6.869c0,1.758,1.361,4.509,4.046,8.177a3.443,3.443,0,0,0,5.563,0c2.685-3.668,4.046-6.419,4.046-8.177A6.835,6.835,0,0,0,8.846.042Zm0,9.548a2.736,2.736,0,1,1,2.736-2.736A2.736,2.736,0,0,1,8.846,9.59Z" transform="translate(39.239 452.893)" fill="#fff"/>
  </g>
</svg>
