<svg xmlns="http://www.w3.org/2000/svg" width="32" height="32" viewBox="0 0 32 32">
  <g id="Group_17951" data-name="Group 17951" transform="translate(-32 -445.113)">
    <rect id="Rectangle_1829" data-name="Rectangle 1829" width="32" height="32" rx="16" transform="translate(32 445.113)" fill="#f2c811"/>
    <path id="phone-call_1_" data-name="phone-call (1)" d="M16.086,7.688a.7.7,0,0,1-.7-.7A5.6,5.6,0,0,0,9.8,1.4.7.7,0,0,1,9.8,0a7,7,0,0,1,6.989,6.989A.7.7,0,0,1,16.086,7.688Zm-2.1-.7A4.194,4.194,0,0,0,9.8,2.8a.7.7,0,1,0,0,1.4,2.8,2.8,0,0,1,2.8,2.8.7.7,0,1,0,1.4,0Zm1.526,8.5.636-.733a2.167,2.167,0,0,0,0-3.059c-.022-.022-1.7-1.315-1.7-1.315a2.167,2.167,0,0,0-2.992,0l-1.332,1.122A8.935,8.935,0,0,1,5.278,6.656L6.4,5.328a2.167,2.167,0,0,0,0-2.993S5.106.656,5.085.634A2.154,2.154,0,0,0,2.061.6l-.8.7C-3.491,6.81,6.734,16.956,12.425,16.774a4.3,4.3,0,0,0,3.09-1.283Z" transform="translate(39.974 453.125)" fill="#fff"/>
  </g>
</svg>
