<svg xmlns="http://www.w3.org/2000/svg" width="32" height="32" viewBox="0 0 32 32">
  <g id="Group_17952" data-name="Group 17952" transform="translate(-32 -445)">
    <rect id="Rectangle_1829" data-name="Rectangle 1829" width="32" height="32" rx="16" transform="translate(32 445)" fill="#f2c811"/>
    <g id="alarm-clock_1_" data-name="alarm-clock (1)" transform="translate(39.968 452.968)">
      <path id="Path_21652" data-name="Path 21652" d="M22.056,2.986a.664.664,0,1,1-1.328,0,1.719,1.719,0,0,0-1.849-1.66.664.664,0,1,1,0-1.328,3.054,3.054,0,0,1,3.177,2.987Z" transform="translate(-6.122 0.004)" fill="#fff"/>
      <path id="Path_21653" data-name="Path 21653" d="M1.328,2.986a1.719,1.719,0,0,1,1.849-1.66A.664.664,0,0,0,3.177,0,3.054,3.054,0,0,0,0,2.986a.664.664,0,1,0,1.328,0Z" transform="translate(0 0.004)" fill="#fff"/>
      <path id="Path_21654" data-name="Path 21654" d="M13.826,13.394A7.289,7.289,0,0,0,8.967,1.362v-.7a.664.664,0,1,0-1.328,0v.7A7.289,7.289,0,0,0,2.78,13.394a2.008,2.008,0,0,0-1.116,1.875.664.664,0,1,0,1.328,0,.8.8,0,0,1,.737-.816.619.619,0,0,0,.133-.041,7.252,7.252,0,0,0,8.889,0,.686.686,0,0,0,.121.042.8.8,0,0,1,.742.815.664.664,0,1,0,1.328,0,2.008,2.008,0,0,0-1.116-1.875Zm-3.062-2.967a.664.664,0,0,1-.939,0L7.833,8.436a.664.664,0,0,1-.195-.469V4.647a.664.664,0,1,1,1.328,0V7.692l1.8,1.8A.664.664,0,0,1,10.764,10.428Z" transform="translate(-0.336 0.003)" fill="#fff"/>
    </g>
  </g>
</svg>
